<svg xmlns="http://www.w3.org/2000/svg" width="20" height="22" viewBox="0 0 20 22">
    <path fill="#161E6D" fill-rule="evenodd" d="M4 12.127h1.333V10.78H4v1.347zm-1.333 1.347h4V9.433h-4v4.041zM4 17.517h1.333V16.17H4v1.348zm-1.333 1.347h4v-4.042h-4v4.042zm6.666-6.737h1.333V10.78H9.333v1.347zm-1.334 1.347h4V9.433h-4v4.041zm1.334 4.043h1.333V16.17H9.333v1.348zm-1.334 1.347h4v-4.042h-4v4.042zm6.666-6.737H16V10.78h-1.334v1.347zm-1.333 1.347h4V9.433h-4v4.041zm1.333 4.043H16V16.17h-1.334v1.348zm-1.333 1.347h4v-4.042h-4v4.042zm5.333-12.126H1.333v12.8a.67.67 0 0 0 .667.674h15.998a.67.67 0 0 0 .667-.674v-12.8zm0-3.369a.67.67 0 0 0-.667-.674h-3.333v1.348h-1.333V2.695H6.666v1.348H5.333V2.695H2a.67.67 0 0 0-.667.674V5.39h17.332V3.37zm0 18.19H1.333A1.34 1.34 0 0 1 0 20.212V2.695a1.34 1.34 0 0 1 1.333-1.347h4V0h1.333v1.348h6.666V0h1.333v1.348h4.667c.736 0 .666.603.666 1.347v17.517a1.34 1.34 0 0 1-1.333 1.347z"/>
</svg>
