<svg xmlns="http://www.w3.org/2000/svg" width="84" height="84" viewBox="0 0 84 84">
    <g fill="none" fill-rule="evenodd" transform="translate(7 7)">
        <circle cx="35" cy="35" r="38.5" fill="#FDEADB" stroke="#FFF" stroke-width="7"/>
        <g fill="#F65618" fill-rule="nonzero" stroke="#F65618" stroke-width=".5">
            <path d="M39.319 42.904L27.096 30.68c-.177-.177-.4-.266-.622-.222a.877.877 0 0 0-.622.267.567.567 0 0 0-.178.267L16.92 51.926a.867.867 0 0 0 0 .667c.088.222.266.4.444.488a.837.837 0 0 0 .356.09h.177l.045-.045h.089l21.066-8.845c.223-.088.356-.266.445-.488a.713.713 0 0 0-.045-.667c-.044-.089-.089-.133-.177-.222zm-18.756 4.844l1.689 1.689-2.889 1.2 1.2-2.889zm6.756-.444L23.94 48.68l-2.667-2.666 1.378-3.378 4.667 4.667zm5.155-2.134l-3.378 1.378-5.689-5.644 1.378-3.378 7.69 7.644zm1.733-.71l-8.666-8.667 1.244-2.978 10.4 10.355-2.978 1.29zM29.94 30.904l-.31.31 1.244 1.245.311-.31c1.111-1.112 1.867-2.534 2.222-4.09a8.841 8.841 0 0 0-.133-4.31l-.133-.445-1.69.533.134.4c.356 1.111.356 2.311.134 3.422a6.693 6.693 0 0 1-1.778 3.245z"/>
            <path d="M29.807 21.215l.845 2.755 2.089-1.955 2.8.666-.667-2.8 1.956-2.088-2.756-.845-.889-2.711-2.089 1.956-2.8-.667.667 2.8-1.956 2.089 2.8.8zm.89-3.334l.933.223.71-.667.267.933.934.267-.667.711.222.933-.933-.222-.711.667-.267-.933-.933-.267.667-.711-.223-.934zM46.696 36.86l-.444-.134a8.841 8.841 0 0 0-4.311-.133c-1.556.355-2.978 1.11-4.09 2.222l-.31.31 1.244 1.245.311-.31c.89-.89 2-1.512 3.245-1.779a6.405 6.405 0 0 1 3.422.134l.4.133.533-1.689z"/>
            <path d="M55.763 36.815l-2.756-.845-.844-2.755-2.089 1.955-2.8-.666.667 2.8-1.956 2.089 2.756.844.844 2.756 2.09-1.956 2.8.667-.668-2.8 1.956-2.09zm-3.644 2.489l-.934-.223-.71.667-.268-.933-.933-.267.667-.711-.222-.933.933.222.711-.667.267.934.933.266-.711.667.267.978zM41.407 28.593l.845 2.755 2.089-1.955 2.8.666-.667-2.8 1.956-2.089-2.756-.844-.844-2.756-2.09 1.956-2.8-.667.667 2.8-1.955 2.09 2.755.844zm3.112-1.823l.222.89-.934-.223-.71.667-.267-.934-.934-.266.667-.711-.222-.89.933.223.711-.667.267.934.933.266-.666.711zM40.499 30.73l-5.437 5.437-1.226-1.225 5.437-5.437z"/>
        </g>
    </g>
</svg>
