<svg xmlns="http://www.w3.org/2000/svg" width="85" height="85" viewBox="0 0 85 85">
    <g fill="none" fill-rule="evenodd">
        <circle cx="42.5" cy="42.5" r="42.5" fill="#FDEADB"/>
        <g fill="#F65618" fill-rule="nonzero">
            <path d="M33.853 56.44c0 .369.3.668.668.668h16.974c.37 0 .669-.3.669-.669V34.773H33.853V56.44zM46.77 38.46h2.507V53.04H46.77V38.46zm-5.015 0h2.507V53.04h-2.507V38.46zm-5.016 0h2.508V53.04h-2.508V38.46zM48.645 30.073v-2.404c0-.37-.3-.669-.67-.669h-9.934c-.37 0-.669.3-.669.669v3.24h-4.674c-.37 0-.669.3-.669.669v1.69c0 .37.3.67.669.67h20.621c.37 0 .668-.3.668-.67v-1.69c0-.37-.299-.67-.668-.67h-4.674v-.835zm-2.508.698H39.88v-1.263h6.257v1.263z"/>
        </g>
    </g>
</svg>
