<svg xmlns="http://www.w3.org/2000/svg" width="31" height="31" viewBox="0 0 31 31">
    <path fill="#F80" fill-rule="evenodd" stroke="#F80" d="M21.617 10.402c0 .284-.104.52-.311.708l-4.362 4.39 4.362 4.39a.991.991 0 0 1 .014 1.43.983.983 0 0 1-.722.297c-.284 0-.529-.094-.737-.283l-4.361-4.39-4.361 4.39a1.058 1.058 0 0 1-.737.283.983.983 0 0 1-.722-.297.983.983 0 0 1-.297-.722c0-.284.104-.52.311-.708l4.362-4.39-4.362-4.39a.917.917 0 0 1-.311-.708c0-.283.099-.524.297-.722a.983.983 0 0 1 .722-.297c.284 0 .529.094.737.283l4.361 4.39 4.361-4.39c.208-.189.453-.283.737-.283.283 0 .524.099.722.297a.983.983 0 0 1 .297.722zm1.161-7.448a14.212 14.212 0 0 1 5.282 5.268C29.353 10.45 30 12.876 30 15.5c0 2.624-.647 5.05-1.94 7.278a14.32 14.32 0 0 1-5.282 5.282C20.55 29.353 18.124 30 15.5 30c-2.624 0-5.05-.647-7.278-1.94a14.32 14.32 0 0 1-5.282-5.282C1.647 20.55 1 18.124 1 15.5c0-2.624.647-5.05 1.94-7.278A14.32 14.32 0 0 1 8.222 2.94C10.45 1.647 12.876 1 15.5 1c2.624 0 5.05.651 7.278 1.954zm1.53 21.354a12.606 12.606 0 0 0 2.69-3.965c.642-1.53.963-3.144.963-4.843 0-1.7-.33-3.313-.991-4.843a12.217 12.217 0 0 0-2.662-3.965 12.606 12.606 0 0 0-3.965-2.69 12.386 12.386 0 0 0-4.843-.963c-1.7 0-3.313.33-4.843.991a12.217 12.217 0 0 0-3.965 2.662 12.606 12.606 0 0 0-2.69 3.965 12.386 12.386 0 0 0-.963 4.843c0 1.7.33 3.313.991 4.843a12.217 12.217 0 0 0 2.662 3.965 12.606 12.606 0 0 0 3.965 2.69c1.53.642 3.144.963 4.843.963 1.7 0 3.313-.33 4.843-.991a12.217 12.217 0 0 0 3.965-2.662z"/>
</svg>
