<svg xmlns="http://www.w3.org/2000/svg" width="70" height="70" viewBox="0 0 70 70">
    <g fill="none" fill-rule="evenodd">
        <circle cx="35" cy="35" r="35" fill="#FDEADB"/>
        <g fill="#F65618">
            <path fill-rule="nonzero" d="M33.596 43.934a1.43 1.43 0 0 0-.816-.235c-.505 0-.932.235-1.204.626l-3.807 5.314v.04a.759.759 0 0 1-.505.312c-.155.04-.31 0-.427-.078a.812.812 0 0 1-.233-.39c-.039-.157.039-.314.117-.43l5.01-6.605a1.504 1.504 0 0 0-.271-2.11 1.55 1.55 0 0 0-.894-.313c-.466 0-.893.196-1.165.586l-5.05 6.565a3.718 3.718 0 0 0-.7 2.775c.156.977.7 1.876 1.516 2.423.582.39 1.243.586 1.942.586.233 0 .466-.04.7-.078a3.743 3.743 0 0 0 2.369-1.602l3.807-5.315.038-.078c.04-.078.35-.586.195-1.172-.04-.352-.272-.626-.622-.821z"/>
            <path d="M49.591 18.846A5.471 5.471 0 0 0 46.647 18c-.915 0-1.87.192-2.865.615-2.109.923-3.939 2.422-5.212 4.229-1.91 2.576-2.786 5.574-2.348 7.958.04.154-.08.461-.199.73-.04.116-.12.27-.159.385-.12.384-.12.769.08 1.115.199.346.477.615.875.73.16.038.318.077.477.077.637 0 1.234-.385 1.433-1a.542.542 0 0 0 .08-.269c.238-.692.517-1.46.397-2.306-.278-1.653.438-3.845 1.87-5.805a9.345 9.345 0 0 1 3.94-3.23c1.154-.461 2.188-.5 2.825-.038.676.461.955 1.384.875 2.614-.16 1.692-.836 3.306-1.91 4.69-1.392 1.884-3.382 3.306-5.053 3.575-.875.154-1.552.654-2.149 1.115l-.159.116c-.199.153-.358.307-.557.461l-.04.038c-.557.577-.557 1.538.08 2.076.278.27.636.385 1.034.385.358 0 .717-.115 1.035-.385.08-.076.16-.153.278-.23.08-.077.2-.154.279-.23.239-.193.477-.385.676-.424 2.507-.384 5.133-2.191 7.043-4.767a12.148 12.148 0 0 0 2.467-6.15v-.04c.16-2.267-.597-4.113-2.149-5.19z"/>
            <path fill-rule="nonzero" stroke="#F65618" stroke-width=".9" d="M22.762 19.74a.74.74 0 0 0 0 1.061l9.804 9.583a.74.74 0 0 1 0 1.061l-.547.534-10.35-10.11a.783.783 0 0 0-.745-.192.762.762 0 0 0-.543.534.74.74 0 0 0 .202.726l10.35 10.125-1.07 1.038-10.366-10.102a.783.783 0 0 0-.744-.197.762.762 0 0 0-.547.53.74.74 0 0 0 .197.728l10.35 10.11-.546.534a.783.783 0 0 1-1.086 0l-9.804-9.576a.783.783 0 0 0-.743-.198.762.762 0 0 0-.547.53.74.74 0 0 0 .197.728l9.788 9.576a2.35 2.35 0 0 0 3.266 0l14.178 13.833a3.133 3.133 0 0 0 2.977.78 3.047 3.047 0 0 0 2.18-2.13 2.963 2.963 0 0 0-.798-2.907L33.652 32.506c.9-.881.9-2.309 0-3.19l-9.804-9.576a.783.783 0 0 0-1.086 0zM46.721 47.4a1.48 1.48 0 0 1 0 2.128 1.567 1.567 0 0 1-2.18 0L30.386 35.703l2.18-2.13L46.721 47.4z"/>
        </g>
    </g>
</svg>
