<svg xmlns="http://www.w3.org/2000/svg" width="35" height="46" viewBox="0 0 35 46">
    <path fill="#FFF" fill-rule="nonzero" d="M1.5.181C.642.186-.015.928 0 1.681v42c0 .786.715 1.5 1.5 1.5h32c.785 0 1.5-.714 1.5-1.5v-31a1.518 1.518 0 0 0-.437-1.062l-11-11A1.518 1.518 0 0 0 22.5.18h-21zm1.5 3h18v9.5a1.5 1.5 0 0 0 1.5 1.5H32v28H3v-39zm21 2.11l5.89 5.89H24v-5.89zm-6.5 13.89c-.446 0-.85.191-1.125.5l-4.937 4.938c-.582.61-.586 1.539 0 2.125.585.585 1.539.585 2.125 0L16 24.306v10.375a1.5 1.5 0 0 0 3 0V24.306l2.438 2.438c.585.585 1.539.585 2.125 0a1.508 1.508 0 0 0 0-2.125l-4.938-4.938c-.275-.309-.68-.5-1.125-.5z"/>
</svg>
