<svg xmlns="http://www.w3.org/2000/svg" width="48" height="34" viewBox="0 0 48 34">
    <g fill="#FF7516" fill-rule="evenodd">
        <path d="M21.127 23.92c.093-.653-.186-1.307-.698-1.728l-.093-.046c-.046 0-.046-.047-.046-.047l-.047-.047s-.046 0-.046-.047l-.093-.046c-.047 0-.094-.047-.14-.047-.884-.28-1.815-.14-2.7-.093-.232 0-2.093 0-2.14.186l.28-.98c.139-.515.325-1.075.465-1.636.232-.794.325-1.402.232-2.009-.093-.794-.511-1.495-1.21-1.915a2.3 2.3 0 0 0-1.21-.374h-.093c-.418 0-.651.233-.698.654-.046.514-.093.981-.186 1.448-.14.794-.325 1.449-.651 2.01a3.955 3.955 0 0 1-.652.887c-.325.374-.698.747-1.07 1.168l-.884 1.028c-.186.233-.419.467-.652.7-.046.047-.093.094-.186.14-.14.14-.326.234-.512.328a1.88 1.88 0 0 1-.465.14c-.745.233-1.21.42-1.21.888 0 .233-.047.467-.047.654v7.755h1.21c.42.047.838.14 1.35.234l.233.047c1.07.186 2.047.327 3.024.467 2.42.28 5.306.98 7.074-1.215.698-.888.791-2.15.93-3.27.373-1.682.699-3.458.931-5.233zM4.328 33.779H1.117a.737.737 0 0 1-.745-.748v-9.577c0-.42.326-.748.745-.748h3.21c.42 0 .745.327.745.748v9.53c0 .468-.325.795-.744.795z"/>
        <g fill-rule="nonzero">
            <path d="M45.96 0H21.289c-.947 0-1.716.79-1.716 1.764v14.78c0 .973.769 1.763 1.716 1.763h2.958v4.653c0 1.4 1.657 2.099 2.603 1.095l5.592-5.778h13.55c.946 0 1.715-.79 1.715-1.764V1.763C47.676.792 46.907 0 45.961 0zM28.773 8.333l-1.065 1.094c-.03.03-.03.061-.03.092l.237 1.49c.03.152-.148.273-.266.213l-1.331-.73c-.03-.03-.06-.03-.119 0l-1.301.7c-.148.09-.296-.062-.266-.214l.266-1.52c0-.03 0-.091-.03-.091l-1.065-1.065c-.118-.121-.059-.304.119-.334l1.479-.213c.03 0 .059-.03.088-.061l.651-1.369c.06-.152.267-.152.355 0l.651 1.369c.03.03.06.06.089.06l1.45.214c.147.06.207.273.088.365zm7.337 0l-1.065 1.064c-.03.03-.03.06-.03.091l.237 1.49c.03.152-.148.274-.266.213l-1.331-.73c-.03-.03-.06-.03-.119 0l-1.301.7c-.148.091-.296-.061-.267-.213l.267-1.52c0-.031 0-.092-.03-.092l-1.065-1.064c-.118-.122-.06-.304.118-.335l1.48-.213c.03 0 .059-.03.088-.06l.651-1.369c.06-.152.266-.152.355 0l.651 1.369c.03.03.06.06.089.06l1.45.213c.147.091.206.304.088.396zm7.337 0L42.38 9.397c-.03.03-.03.06-.03.091l.237 1.49c.03.152-.148.274-.266.213l-1.332-.73c-.03-.03-.059-.03-.118 0l-1.302.7c-.148.091-.295-.061-.266-.213l.266-1.52c0-.031 0-.092-.03-.092l-1.064-1.064c-.119-.122-.06-.304.118-.335l1.48-.213c.029 0 .058-.03.088-.06l.65-1.369c.06-.152.267-.152.356 0l.65 1.369c.03.03.06.06.09.06l1.45.213c.147.091.206.304.088.396z"/>
        </g>
    </g>
</svg>
