<svg xmlns="http://www.w3.org/2000/svg" width="42" height="42" viewBox="0 0 42 42">
    <g fill="none" fill-rule="evenodd">
        <circle cx="21" cy="21" r="21" fill="#FDEADB" fill-rule="nonzero"/>
        <path fill="#F65618" stroke="#F95500" stroke-width=".5" d="M24.385 13.41v3.165h3.193l-3.193-3.165zm-1.154 3.165v-3.431h-7.5a.575.575 0 0 0-.577.572v14.868c0 .317.258.572.577.572h11.538a.574.574 0 0 0 .577-.572V17.72h-4.615v-1.145zM29 29.728a.574.574 0 0 1-.577.572H14.577a.574.574 0 0 1-.577-.572V12.573c0-.317.258-.573.577-.573h8.808l1 .002 4.613 4.573L29 29.728z"/>
    </g>
</svg>
