<svg xmlns="http://www.w3.org/2000/svg" width="55" height="55" viewBox="0 0 55 55">
    <g fill="none" fill-rule="evenodd">
        <circle cx="27.5" cy="27.5" r="27.5" fill="#161E6D"/>
        <g fill="#FFF">
            <path fill-rule="nonzero" stroke="#FFF" d="M40.368 28.132c.698-.896 1.42-1.823 1.25-3.004-.157-1.092-1.15-1.62-2.025-2.086-.626-.333-1.217-.648-1.484-1.107-.33-.566-.36-1.33-.393-2.14-.046-1.131-.093-2.302-.988-3.098-.384-.341-.862-.507-1.463-.507-.472 0-.964.102-1.44.2-.714.149-1.403.262-1.852.1-.62-.224-1.138-.79-1.687-1.388-.768-.838-1.562-1.705-2.763-1.744h-.065c-1.074 0-1.755.859-2.357 1.617-.44.555-.854 1.078-1.355 1.26a2.59 2.59 0 0 1-.885.132c-.413 0-.847-.058-1.306-.12-.463-.063-.942-.127-1.406-.127-.76 0-1.361.182-1.84.555-.874.68-.839 1.798-.808 2.783.023.705.044 1.371-.223 1.83-.33.566-.98.974-1.67 1.407-.964.605-1.962 1.23-2.209 2.399-.229 1.08.522 1.913 1.184 2.648.474.526.921 1.023 1.014 1.544.114.644-.12 1.372-.368 2.143-.347 1.08-.706 2.195-.14 3.248.525.973 1.639 1.132 2.622 1.273.703.1 1.367.195 1.776.536.505.42.797 1.127 1.106 1.876.433 1.049.88 2.133 1.997 2.577.228.092.47.138.717.138.759 0 1.448-.425 2.115-.835.604-.372 1.174-.723 1.707-.723.659 0 1.34.356 2.063.733.774.403 1.573.82 2.43.82.264 0 .522-.04.768-.12 1.056-.344 1.408-1.405 1.718-2.342.222-.67.432-1.303.84-1.644.505-.42 1.258-.583 2.055-.755 1.115-.241 2.267-.49 2.903-1.504.586-.937.168-1.975-.2-2.89-.265-.655-.514-1.274-.42-1.795.112-.644.583-1.25 1.082-1.89zm-1.642 4.073c.366.91.568 1.495.283 1.95-.399.638-1.29.83-2.232 1.034-.886.192-1.803.39-2.507.977-.638.531-.905 1.338-1.163 2.117-.308.93-.533 1.508-1.045 1.675-.69.223-1.511-.18-2.38-.633-.804-.418-1.634-.851-2.553-.851-.834 0-1.56.447-2.262.88-.707.434-1.357.825-1.885.615-.702-.28-1.048-1.117-1.414-2.003-.344-.833-.7-1.695-1.404-2.281-.638-.532-1.485-.653-2.303-.77-.977-.14-1.588-.258-1.843-.73-.357-.663-.08-1.525.214-2.437.276-.858.561-1.746.402-2.644-.145-.814-.715-1.447-1.266-2.059-.658-.73-1.05-1.211-.938-1.736.156-.735.926-1.218 1.741-1.73.767-.48 1.56-.979 2.02-1.768.417-.717.39-1.565.364-2.385-.031-.98-.02-1.598.405-1.928.294-.23.66-.331 1.19-.331.392 0 .816.056 1.265.117.473.063.962.129 1.446.13.474 0 .882-.065 1.246-.197.783-.283 1.311-.95 1.823-1.595.518-.653.965-1.218 1.558-1.218.757.024 1.37.694 2.02 1.402.61.666 1.241 1.355 2.104 1.667.278.1.58.149.924.149.505 0 1.014-.106 1.506-.207.442-.093.86-.18 1.223-.18.34 0 .574.075.76.24.563.502.6 1.406.639 2.362.036.9.073 1.83.533 2.62.417.717 1.17 1.118 1.899 1.506.87.463 1.403.782 1.48 1.312.106.744-.451 1.46-1.041 2.217-.555.713-1.129 1.45-1.289 2.347-.145.816.173 1.604.48 2.366z"/>
            <path d="M22.308 28.546h-2.13V30.8h-1.32v-5.657h3.665v1.053h-2.345v1.301h2.13v1.05zm2.678.257h-.715V30.8H22.95v-5.657h2.156c.65 0 1.158.149 1.525.447.366.298.55.718.55 1.262 0 .394-.078.72-.232.98-.155.259-.396.468-.725.629l1.144 2.28v.059h-1.415l-.967-1.997zm-.715-1.053h.835c.251 0 .44-.068.567-.204.127-.136.19-.326.19-.57 0-.243-.064-.434-.192-.572-.128-.139-.316-.208-.565-.208h-.835v1.554zm6.983.653h-2.077v1.348h2.453V30.8h-3.774v-5.657h3.782v1.053h-2.461v1.193h2.077v1.014zm4.19 0h-2.077v1.348h2.454V30.8h-3.775v-5.657h3.783v1.053h-2.462v1.193h2.078v1.014z"/>
        </g>
    </g>
</svg>
