<svg xmlns="http://www.w3.org/2000/svg" width="55" height="55" viewBox="0 0 55 55">
    <g fill="none" fill-rule="evenodd">
        <circle cx="27.5" cy="27.5" r="27.5" fill="#161E6D"/>
        <path fill="#FFF" fill-rule="nonzero" stroke="#FFF" stroke-width=".6" d="M38.265 21.078v6.053c-.166.497-.58.538-1.078.538v12.065c0 .746-.207.953-.954.953H18.531c-.746 0-.953-.207-.953-.954V28.084v-.373c-.125 0-.207 0-.29-.042-.54-.041-.788-.29-.788-.829v-5.513c0-.54.249-.788.83-.788h1.865c.083 0 .165 0 .248-.042-.083-.082-.124-.165-.207-.207-1.492-1.7-1.078-4.353.788-5.555 1.41-.912 3.73-.912 5.099 1.078.83 1.244 1.492 2.57 2.073 3.938.041.125.124.249.207.415.083-.207.124-.332.207-.456.58-1.327 1.161-2.653 2.032-3.856.331-.456.704-.87 1.16-1.16 1.493-.912 3.358-.664 4.52.539 1.243 1.285 1.45 3.109.538 4.643-.124.248-.331.456-.497.704h2.031c.415-.083.746.083.87.498zm-19.32 18.2h5.266V27.668h-5.265v11.608zm11.65-11.609v11.65h5.265v-11.65h-5.265zm-1.41 11.608V27.67H25.58v11.608h3.607zm-4.974-12.976v-4.394H17.91v4.394h6.3zm12.686-4.394h-6.302v4.353h6.302v-4.353zm-10.862-1.534c-.207-.456-.332-.829-.539-1.16-.497-.996-.953-2.032-1.658-2.903-.622-.787-1.617-1.036-2.612-.704a2.437 2.437 0 0 0-1.534 2.363c.042.87.746 1.99 1.783 2.114.29.041.622.124.912.166 1.202.041 2.404.083 3.648.124zm2.778-.083c.082 0 .082.042.124.042 1.12-.042 2.28 0 3.4-.083.58-.042 1.202-.166 1.658-.456.953-.54 1.285-1.7.912-2.736-.29-.83-.912-1.368-1.783-1.534-.87-.166-1.7.041-2.197.787-.58.871-1.078 1.783-1.575 2.654-.166.414-.332.87-.54 1.326zm.373 1.617h-3.607v4.394h3.607v-4.394z"/>
    </g>
</svg>
