<svg xmlns="http://www.w3.org/2000/svg" width="16" height="25" viewBox="0 0 16 25">
    <path fill="#FFF" fill-rule="nonzero" d="M8 .102c-4.362 0-8 3.31-8 8 0 1.781.69 3.88 1.429 5.259L7.24 24.218a.857.857 0 0 0 1.518 0L14.57 13.36C15.311 11.98 16 9.883 16 8.1c0-4.689-3.638-8-8-8zm0 1.714c3.527 0 6.286 2.454 6.286 6.286 0 1.29-.64 3.357-1.223 4.446L8 21.986l-5.063-9.438c-.583-1.09-1.223-3.157-1.223-4.446C1.714 4.27 4.473 1.816 8 1.816zm0 2.286c-2.199 0-4 1.8-4 4 0 2.199 1.801 4 4 4s4-1.801 4-4c0-2.2-1.801-4-4-4zm0 1.714a2.273 2.273 0 0 1 2.286 2.286A2.273 2.273 0 0 1 8 10.388a2.273 2.273 0 0 1-2.286-2.286A2.273 2.273 0 0 1 8 5.816z"/>
</svg>
