<svg xmlns="http://www.w3.org/2000/svg" width="20" height="25" viewBox="0 0 20 25">
    <g fill="#313131" fill-rule="evenodd">
        <path d="M17.901 4.648l-3.803-1.63a.29.29 0 0 0-.197 0l-3.802 1.63a.171.171 0 0 0-.099.144v.747h.756v3.36c0 .056.05.101.109.101h1.08c.06 0 .11-.045.11-.102V5.54h1.296v3.36c0 .056.049.101.109.101h1.08c.06 0 .11-.045.11-.102V5.54h1.296v3.36c0 .056.048.101.108.101h1.081c.06 0 .109-.045.109-.102V5.54H18v-.747a.171.171 0 0 0-.099-.144zM16.473 11h-5.945a.514.514 0 0 1-.528-.5c0-.276.236-.5.528-.5h5.944c.291 0 .528.224.528.5s-.236.5-.527.5zM13.4 15H4.6c-.332 0-.6-.224-.6-.5s.268-.5.6-.5h8.8c.331 0 .6.224.6.5s-.269.5-.6.5zM16.295 15h-1.59c-.39 0-.705-.224-.705-.5s.315-.5.705-.5h1.59c.389 0 .705.224.705.5s-.315.5-.705.5zM13.4 18H4.6c-.332 0-.6-.224-.6-.5s.268-.5.6-.5h8.8c.331 0 .6.224.6.5s-.269.5-.6.5zM16.295 18h-1.59c-.39 0-.705-.224-.705-.5s.315-.5.705-.5h1.59c.389 0 .705.224.705.5s-.315.5-.705.5zM13.4 21H4.6c-.332 0-.6-.224-.6-.5s.268-.5.6-.5h8.8c.331 0 .6.224.6.5s-.269.5-.6.5zM16.295 21h-1.59c-.39 0-.705-.224-.705-.5s.315-.5.705-.5h1.59c.389 0 .705.224.705.5s-.315.5-.705.5z"/>
        <path fill-rule="nonzero" d="M20 25H0V0h20v25zM1.115 23.892h17.768V1.108H1.116v22.784z"/>
    </g>
</svg>
