<svg xmlns="http://www.w3.org/2000/svg" width="19" height="26" viewBox="0 0 19 26">
    <g fill="#313131" fill-rule="evenodd">
        <path d="M9.608 10.74h1.21c.15 0 .271-.119.271-.265a.269.269 0 0 0-.272-.265h-1.21a.269.269 0 0 0-.271.265c0 .146.122.265.272.265zM1.995 10.74h3.05c.15 0 .273-.119.273-.265a.269.269 0 0 0-.272-.265H1.995a.269.269 0 0 0-.272.265.27.27 0 0 0 .272.265zM9.608 11.825h1.72c.15 0 .272-.118.272-.265a.268.268 0 0 0-.272-.265h-1.72a.269.269 0 0 0-.272.265c0 .146.122.265.272.265zM1.995 11.825h2.068c.15 0 .273-.118.273-.265a.268.268 0 0 0-.273-.265H1.995a.269.269 0 0 0-.272.265c0 .146.122.265.272.265zM9.608 12.91h.898c.15 0 .273-.118.273-.264a.268.268 0 0 0-.273-.266h-.898a.269.269 0 0 0-.272.265c0 .147.122.266.272.266zM1.995 12.91h3.393c.15 0 .272-.118.272-.264a.268.268 0 0 0-.272-.266H1.995a.269.269 0 0 0-.272.265c0 .147.122.266.272.266zM9.608 13.995h.889c.15 0 .272-.118.272-.264a.269.269 0 0 0-.272-.265h-.89a.269.269 0 0 0-.271.264.27.27 0 0 0 .272.265zM1.995 13.995h4.003c.15 0 .272-.118.272-.264a.269.269 0 0 0-.272-.265H1.995a.269.269 0 0 0-.272.264.27.27 0 0 0 .272.265zM9.608 15.08h.372c.15 0 .272-.119.272-.265a.268.268 0 0 0-.272-.265h-.372a.269.269 0 0 0-.272.265c0 .146.122.265.272.265zM1.995 15.08h2.67c.15 0 .272-.119.272-.265a.268.268 0 0 0-.272-.265h-2.67a.269.269 0 0 0-.272.265c0 .146.122.265.272.265zM9.609 23.157h2.556c.15 0 .272-.119.272-.265a.269.269 0 0 0-.272-.265H9.609a.269.269 0 0 0-.272.265.27.27 0 0 0 .272.265zM9.609 24.242h1.903c.15 0 .273-.119.273-.265a.268.268 0 0 0-.273-.265H9.61a.269.269 0 0 0-.272.265c0 .146.122.265.272.265zM9.608 16.165h1.273c.15 0 .272-.118.272-.265a.269.269 0 0 0-.272-.265H9.608a.269.269 0 0 0-.272.265c0 .147.122.265.272.265zM1.995 16.165h3.437c.15 0 .272-.118.272-.265a.269.269 0 0 0-.272-.265H1.995a.269.269 0 0 0-.272.265.27.27 0 0 0 .272.265zM9.608 17.25h.644c.15 0 .272-.119.272-.265a.269.269 0 0 0-.272-.265h-.644a.269.269 0 0 0-.272.265c0 .146.122.265.272.265zM1.995 17.25h2.213c.15 0 .272-.119.272-.265a.269.269 0 0 0-.272-.265H1.995a.269.269 0 0 0-.272.265.27.27 0 0 0 .272.265zM9.608 18.335h2.022c.15 0 .272-.119.272-.265a.268.268 0 0 0-.272-.265H9.608a.269.269 0 0 0-.272.265c0 .146.122.265.272.265zM1.995 18.335h1.68c.15 0 .272-.119.272-.265a.268.268 0 0 0-.272-.265h-1.68a.269.269 0 0 0-.272.265c0 .146.122.265.272.265zM9.608 19.42h1.047c.15 0 .272-.118.272-.265a.269.269 0 0 0-.272-.265H9.608a.269.269 0 0 0-.272.265.27.27 0 0 0 .272.265zM1.995 19.42h4.377c.15 0 .272-.118.272-.265a.269.269 0 0 0-.272-.265H1.995a.269.269 0 0 0-.272.265.27.27 0 0 0 .272.265z"/>
        <path fill-rule="nonzero" d="M18.737 3.759l-.001-.011a.255.255 0 0 0-.023-.067l-.008-.014a.263.263 0 0 0-.044-.06L15.505.534a.28.28 0 0 0-.054-.04l-.017-.008a.275.275 0 0 0-.052-.019L15.37.463a.278.278 0 0 0-.058-.006H.374a.269.269 0 0 0-.272.265v24.903c0 .146.122.265.272.265H18.47c.15 0 .272-.119.272-.265V3.795c0-.012-.003-.024-.004-.036zm-3.219-2.462l2.207 2.149-2.427-.268.22-1.881zM7.698 25.36H.646v-3.788h7.052v3.788zm6.106 0H8.241v-3.788h5.563v3.788zm0-4.873H.646V9.152h13.158v11.335zm4.392 4.873h-3.848V9.151h3.848V25.36zm0-17.292H.646V.987h14.361l-.28 2.394c-.009.07.012.14.057.195.045.054.11.09.182.098l3.23.358v4.036z"/>
        <path fill-rule="nonzero" d="M3.468 4.197V3.129c.301.086.519.276.69.471l.49-.505a2.02 2.02 0 0 0-1.18-.614v-.62h-.566v.609c-.69.068-1.238.487-1.238 1.13 0 .66.466 1.062 1.238 1.195v1.147c-.412-.091-.666-.327-.86-.579l-.478.47c.295.362.731.672 1.338.747v.614h.566v-.603c.837-.075 1.321-.54 1.321-1.154 0-.643-.413-1.097-1.32-1.24zm-.566-.098c-.39-.086-.53-.27-.53-.516 0-.207.159-.437.53-.494V4.1zm.566 1.877v-1.09c.454.098.613.31.613.563 0 .264-.206.482-.613.527z"/>
        <path d="M14.68 4.035a.62.62 0 0 1-.136-.083.035.035 0 0 0-.048.005.033.033 0 0 0 .005.046.7.7 0 0 0 .364.15l2.92.33h.004a.034.034 0 0 0 .034-.029.033.033 0 0 0-.03-.036l-2.92-.33a.647.647 0 0 1-.194-.053z"/>
    </g>
</svg>
