<?xml version="1.0" encoding="UTF-8"?>
<svg width="23px" height="27px" viewBox="0 0 23 27" version="1.1" xmlns="http://www.w3.org/2000/svg" xmlns:xlink="http://www.w3.org/1999/xlink">
    <!-- Generator: sketchtool 53 (72520) - https://sketchapp.com -->
    <title>413DD1BE-4242-4EB7-8B31-472D9A049EC3</title>
    <desc>Created with sketchtool.</desc>
    <g id="NTB" stroke="none" stroke-width="1" fill="none" fill-rule="evenodd">
        <g id="Mobile---Apply-Card-14-2" transform="translate(-219.000000, -681.000000)" fill="#313131">
            <g id="noun_Document_184052" transform="translate(219.000000, 681.000000)">
                <g id="Group">
                    <path d="M18.5839921,0.264777955 C16.2167831,0.264777955 14.2914098,2.21732591 14.2914098,4.61725773 C14.2914098,7.01721409 16.2167831,8.96922205 18.5839921,8.96922205 C20.9511757,8.96922205 22.8765741,7.01721409 22.8765741,4.61725773 C22.8765741,2.21732591 20.9511757,0.264777955 18.5839921,0.264777955 Z M18.5839921,0.878426591 C20.6240706,0.878426591 22.2713249,2.54895648 22.2713249,4.61725773 C22.2713249,6.68555898 20.6240706,8.35560102 18.5839921,8.35560102 C16.5438882,8.35560102 14.8966594,6.68555898 14.8966594,4.61725773 C14.8966594,2.54895648 16.5438882,0.878426591 18.5839921,0.878426591 Z" id="Shape" fill-rule="nonzero"></path>
                    <path d="M18.2811868,2.37472977 L18.2811868,3.022515 C17.9121882,3.15699341 17.64905,3.52385591 17.6493224,3.94477977 C17.6493224,4.47373432 18.0629592,4.92362182 18.5832434,4.92395932 C18.7108026,4.92423545 18.8299184,5.00425364 18.8846947,5.14446955 C18.9395921,5.28514568 18.9076947,5.44978432 18.8107921,5.55318205 C18.7137987,5.65657977 18.5823658,5.68311955 18.4614645,5.62988659 C18.3405632,5.57662295 18.2534053,5.44429227 18.2534053,5.2895025 L17.6481421,5.2895025 C17.6481421,5.67906955 17.8693053,6.03770932 18.2209026,6.19259114 C18.2405737,6.20118205 18.2610921,6.20639795 18.2811868,6.21345477 L18.2811868,6.85946045 L18.88645,6.85946045 L18.88645,6.21345477 C19.0213632,6.16510023 19.1468645,6.08545023 19.2493658,5.97616159 C19.5136842,5.69434909 19.5887066,5.28048205 19.4473776,4.91846727 C19.3062908,4.55703545 18.9658303,4.31038432 18.5832434,4.31023091 C18.4061132,4.31010818 18.2541618,4.15807977 18.2540105,3.94468773 C18.2538895,3.73129568 18.4055382,3.57892977 18.5826382,3.57853091 C18.7597382,3.57828545 18.9118105,3.72948545 18.9124763,3.9428775 L19.5177395,3.93980932 C19.5147132,3.52023545 19.2536934,3.15527523 18.88645,3.02113432 L18.88645,2.37334909 L18.2811868,2.37334909 L18.2811868,2.37472977 Z" id="Path"></path>
                    <path d="M0.123473684,4.3122375 C0.123473684,11.8606398 0.123473684,19.409042 0.123473684,26.957475 L18.8860566,26.957475 L18.8860566,9.87512727 L18.2807934,9.87512727 L18.2807934,26.3438386 L0.728736842,26.3438386 L0.728736842,4.92587386 L2.46239211,4.92587386 L2.46239211,11.0916 C3.16894605,10.3779409 3.87477368,9.66348409 4.58081316,8.94927273 L4.58081316,8.94927273 C5.28679211,9.66354545 5.99274079,10.3778182 6.69923421,11.0916 L6.69923421,4.92587386 L13.3984987,4.92587386 L13.3984987,4.3122375 L0.123473684,4.3122375 Z M3.06765526,4.92587386 L6.09454605,4.92587386 L6.09454605,9.61264432 L4.58138816,8.08275682 L4.58138816,8.08275682 L3.06823026,9.61264432 L3.06765526,4.92587386 Z" id="Shape" fill-rule="nonzero"></path>
                    <polygon id="Path" points="2.46886842 12.6614045 2.46886842 13.2750409 16.5406618 13.2750409 16.5406618 12.6614045"></polygon>
                    <polygon id="Path" points="2.46886842 14.4399682 2.46886842 15.0536045 16.5406618 15.0536045 16.5406618 14.4399682"></polygon>
                    <polygon id="Path" points="2.46886842 16.2185625 2.46886842 16.8321989 16.5406618 16.8321989 16.5406618 16.2185625"></polygon>
                    <polygon id="Path" points="2.46886842 17.9971568 2.46886842 18.6107932 16.5406618 18.6107932 16.5406618 17.9971568"></polygon>
                    <polygon id="Path" points="2.46886842 19.7757511 2.46886842 20.3893875 16.5406618 20.3893875 16.5406618 19.7757511 2.46886842 19.7757511"></polygon>
                    <polygon id="Path" points="2.46886842 21.8509466 2.46886842 22.464583 9.50505263 22.464583 9.50505263 21.8509466"></polygon>
                    <polygon id="Path" points="13.8169776 23.5894091 13.8169776 24.2030455 16.5406618 24.2030455 16.5406618 23.5894091 13.8169776 23.5894091"></polygon>
                </g>
            </g>
        </g>
    </g>
</svg>