<svg xmlns="http://www.w3.org/2000/svg" xmlns:xlink="http://www.w3.org/1999/xlink" width="375" height="388" viewBox="0 0 375 388">
    <defs>
        <path id="a" d="M0 100.297v-61.18l.192-.568C4.677 25.418 11.005 12.14 23.144 4.436c10.736-6.814 23.629-2.66 33.77 3.357 12.664 7.515 23.974 18.347 33.246 29.7 7.264 8.895 14.443 19.783 12.526 31.838-1.02 6.412-4.56 12.21-8.99 16.959-14.888 15.955-37.189 25.928-58.212 30.518-6.418 1.402-13.356 1.706-19.641-.469a18.51 18.51 0 0 1-.656-.24c-5.127-1.992-9.189-6.157-12.2-10.681A50.18 50.18 0 0 1 0 100.298z"/>
        <linearGradient id="b" x1="11.585%" x2="-3.24%" y1="44.613%" y2="25.078%">
            <stop offset="0%" stop-color="#FAD961"/>
            <stop offset="100%" stop-color="#F76B1C"/>
        </linearGradient>
        <path id="d" d="M60.932 76.88c-4.108 5.808-8.493 11.38-13.446 16.479-15.887 16.356-37.371 25.493-44.6 49.006-10.092 32.83 7.494 65.506 33.889 84.748 30.724 22.398 68.575 25.882 104.624 14.74 45.26-13.989 83.428-51.088 97.094-96.64 14.37-47.901 11.334-109.037-37.905-135.446C167.255-8.109 122.385-.846 96.37 26.638c-14.117 14.917-23.631 33.55-35.438 50.243"/>
        <linearGradient id="e" x1="100%" x2="0%" y1="100%" y2="16.259%">
            <stop offset="0%" stop-color="#FAD961"/>
            <stop offset="100%" stop-color="#F76B1C"/>
        </linearGradient>
        <path id="g" d="M23.243 6.98l-1.04.39c-2.4.901-3.543 1.63-7.617 1.52l-4.356-.547a6.499 6.499 0 0 0-1.425.054l-1.457.216c-1.354.201-2.345.491-3.707.35L.66 8.652a.738.738 0 0 1-.607-1.006l.375-.936S-.004 5.07 0 4.508c.005-.667.315-2.046.59-3.134a1.091 1.091 0 0 1 1.638-.66c.879.552 2.078 1.16 3.097 1.15C6.594 1.852 8.136.784 8.88.204a.972.972 0 0 1 .99-.12c1.862.827 8.006 3.5 10.454 3.866.426.064 1.256.245 2.02.188C23.234 4.07 24 4.682 24 5.463v.514c0 .436-.299.83-.757 1.003"/>
    </defs>
    <g fill="none" fill-rule="evenodd">
        <g opacity=".604" transform="translate(-9 -.916)">
            <mask id="c" fill="#fff">
                <use xlink:href="#a"/>
            </mask>
            <path fill="url(#b)" d="M0 377.916h756v-503H0z" mask="url(#c)"/>
        </g>
        <g opacity=".802" transform="translate(91 66)">
            <mask id="f" fill="#fff">
                <use xlink:href="#d"/>
            </mask>
            <path fill="url(#e)" d="M60.932 76.88c-4.108 5.808-8.493 11.38-13.446 16.479-15.887 16.356-37.371 25.493-44.6 49.006-10.092 32.83 7.494 65.506 33.889 84.748 30.724 22.398 68.575 25.882 104.624 14.74 45.26-13.989 83.428-51.088 97.094-96.64 14.37-47.901 11.334-109.037-37.905-135.446C167.255-8.109 122.385-.846 96.37 26.638c-14.117 14.917-23.631 33.55-35.438 50.243" mask="url(#f)"/>
        </g>
        <g style="mix-blend-mode:luminosity">
            <g transform="rotate(-1 14291.13 -14634.742)">
                <mask id="h" fill="#fff">
                    <use xlink:href="#g"/>
                </mask>
                <path fill="#F5A623" d="M18.595 7.384l-.833.313c-1.92.72-2.834 1.303-6.093 1.215l-3.485-.437a5.2 5.2 0 0 0-1.14.042L5.88 8.69c-1.084.161-1.877.393-2.966.28L.527 8.722a.59.59 0 0 1-.485-.804l.3-.75S-.004 5.856 0 5.407C.004 4.873.253 3.77.473 2.9a.873.873 0 0 1 1.31-.529c.703.442 1.663.928 2.478.92 1.014-.01 2.248-.864 2.844-1.328a.777.777 0 0 1 .791-.096c1.49.662 6.405 2.8 8.364 3.093.34.051 1.005.196 1.616.15.71-.054 1.324.436 1.324 1.06v.412c0 .349-.239.664-.605.802" mask="url(#h)"/>
            </g>
            <path fill="#EDEDED" d="M218.815 232.496c.013.754-.523 1.374-1.196 1.386l-10.56.184c-.673.012-1.23-.59-1.243-1.343l-.301-17.27c-.013-.752.522-1.372 1.196-1.384l7.31-.127 4.556 4.92.238 13.634"/>
            <path fill="#E2E2E2" d="M213.622 219.02l5.086 4.912-.078-4.493-.51-.498-4.498.079"/>
            <path fill="#F3AA06" d="M214.622 214.02l.063 3.634a1.363 1.363 0 0 0 1.386 1.341l3.637-.063-5.086-4.912"/>
            <path fill="#B3B3B3" d="M207.674 228.054l8.999-.157-.018-1-8.998.157z"/>
            <path fill="#B3B3B3" d="M207.674 229.054l8.999-.157-.018-1-8.998.157zM207.674 232.054l8.999-.157-.018-1-8.998.157zM206.674 223.045l7.999-.14-.018-1-7.998.14z"/>
            <path fill="#FFBF0D" d="M263.551 235.065c-.45.008-.821-.32-.829-.733l-.113-6.5c-.007-.417.351-.757.803-.765l10.364-.181c.451-.008.824.32.831.736l.114 6.5c.007.414-.354.755-.805.762l-10.365.181"/>
            <path fill="#FFBF0D" d="M263.551 235.065c-.45.008-.821-.32-.829-.733l-.113-6.5c-.007-.417.351-.757.803-.765l10.364-.181c.451-.008.824.32.831.736l.114 6.5c.007.414-.354.755-.805.762l-10.365.181"/>
            <path fill="#F3AA06" d="M273.776 226.886l-10.364.18c-.452.009-.81.35-.803.765l.007.393 9.637 6.69 1.663-.03c.45-.007.812-.348.805-.762l-.114-6.5c-.007-.416-.38-.744-.831-.736"/>
            <path fill="#FECE40" d="M268.709 231.975l5.932-3.93-.008-.424c-.007-.416-.38-.743-.83-.736l-10.365.181c-.451.008-.81.349-.803.765l.008.423 6.066 3.721"/>
            <path fill="#F3AA06" d="M152.298 245.433l-10.237-10.435a3.029 3.029 0 0 0-.315-.32l-.102-.104-.008.005c-.482-.382-1.068-.613-1.706-.601-.637.01-1.215.261-1.683.66l-.011-.004-.096.108c-.11.103-.21.21-.304.33l-9.869 10.786a1.33 1.33 0 0 0-.317.896l.22 12.555c.018 1.04.795 1.87 1.738 1.853l21.587-.377c.94-.016 1.689-.873 1.67-1.912l-.219-12.556a1.32 1.32 0 0 0-.348-.884"/>
            <path fill="#2094F1" d="M145.65 250.87h-.013a5.95 5.95 0 0 1-1.676 4.256 5.955 5.955 0 0 1-4.192 1.824 5.957 5.957 0 0 1-4.255-1.676 5.959 5.959 0 0 1-1.824-4.195 5.957 5.957 0 0 1 1.676-4.254 5.957 5.957 0 0 1 4.195-1.824 5.955 5.955 0 0 1 4.253 1.676 5.948 5.948 0 0 1 1.823 4.193h.027a6 6 0 0 0-6.104-5.894 6 6 0 1 0 6.104 5.893h-.014"/>
            <path fill="#F3F3F3" d="M149.838 255.773l-.237-13.527-6.77-6.353-14.523.253c-1.003.018-1.802.824-1.785 1.797l.318 18.232 22.997-.402"/>
            <path fill="#FFBF0D" d="M150.776 261.774l-21.313.372a1.69 1.69 0 0 1-1.713-1.665l-.197-11.304 23.223 12.597"/>
            <path fill="#FECE40" d="M128.78 261.175l21.315-.372a1.689 1.689 0 0 0 1.652-1.723l-.197-11.304-22.77 13.4"/>
            <path fill="#CDD5D7" d="M141.596 237.046l.101 5.819a2.182 2.182 0 0 0 2.22 2.142l5.817-.102-8.138-7.859"/>
            <path fill="#D9E1E4" d="M132.675 246.089l12.998-.227-.018-1-12.998.227zM132.675 248.089l12.998-.227-.018-1-12.998.227zM131.674 244.054l8.999-.157-.018-1-8.998.157z"/>
            <path fill="#FF3D0D" d="M227.724 243.921c.008.484.33.871.72.864l1.368-.024.058 3.29 3.29-3.348 6.87-.12c.392-.007.7-.405.692-.889l-.174-9.954c-.008-.486-.33-.871-.722-.864l-11.586.202c-.39.007-.698.403-.69.889l.174 9.954"/>
            <path fill="#FFF" d="M237.664 237.44l-1.976 1.286-1.98 1.284-.087-5 2.023 1.215 2.02 1.215"/>
            <path fill="#FF3D0D" d="M231.15 205.704c-.733.013-1.338-.538-1.35-1.23-.013-.691.573-1.265 1.305-1.278.737-.013 1.344.54 1.357 1.232.012.691-.577 1.263-1.313 1.276zm-.099-5.727c-2.485.043-4.466 1.976-4.425 4.317.04 2.34 4.652 8.68 4.652 8.68s4.388-6.497 4.347-8.838c-.041-2.34-2.089-4.203-4.574-4.16z"/>
            <path fill="#2C7EEA" d="M221.715 252.708c.01.536-.404.978-.919.987l-30.837.538c-.515.009-.944-.418-.953-.954l-.026-1.513-1.313-1.493 1.256-1.78-.023-1.273c-.009-.533.405-.977.92-.986l30.837-.538c.514-.01.943.42.952.953l.106 6.06"/>
            <path fill="#FFF" d="M209.674 248.054l8.999-.157-.018-1-8.998.157z"/>
            <path fill="#FFF" d="M198.674 248.08l11.999-.21-.018-1-11.998.21zM193.674 249.002l3-.053-.018-1-3 .053z"/>
            <path fill="#2B83FD" d="M230.78 270.08l11.997-.21-.227-12.998-11.998.21z"/>
            <path fill="#FFF" d="M239.285 262.607l-2.21.038c.102-.233.224-.524.252-.672.03-.15-.01-.506-.01-.506-.004-.267-.24-.482-.526-.477l-.26.005.013.75s-.892 1.007-.885 1.41l.041 2.37c.005.268.243.481.527.476l1.818-.032a.817.817 0 0 0 .7-.497l.88-2.386c.1-.268-.053-.484-.34-.48M232.691 265.984l1-.017-.052-3-1 .017z"/>
            <path fill="#FFF" d="M232.691 265.984l1-.017-.052-3-1 .017z"/>
            <path fill="#2C7EEA" d="M246.666 216.081c1.756 2.495 3.846 3.933 6.068 3.894 2.224-.039 4.262-1.549 5.93-4.103-1.756-2.497-3.846-3.935-6.07-3.896-2.222.039-4.26 1.549-5.928 4.105"/>
            <path fill="#FFF" d="M251.63 214.002l.07 4 2.965-2.054-3.035-1.946"/>
            <path fill="#F3F3F3" d="M188.883 293.32a1.314 1.314 0 0 1-1.294 1.336l-36.362.635a1.314 1.314 0 0 1-1.338-1.29l-.443-25.37a1.314 1.314 0 0 1 1.292-1.336l36.362-.635a1.314 1.314 0 0 1 1.34 1.29l.443 25.37"/>
            <path fill="#CDD5D7" d="M157.664 271.94a2 2 0 1 1-4 .07 2 2 0 0 1 4-.07M158.675 274.15l19.997-.35-.017-.999-19.997.35z"/>
            <path fill="#879BA6" d="M159.674 271.08l11.999-.21-.018-1-11.998.21z"/>
            <path fill="#4E99FF" d="M153.807 293.271l33.995-.593-.28-15.998-33.994.593z"/>
            <path fill="#FFF" d="M172.664 283.44l-3.955 2.57-.088-5 2.022 1.214 2.021 1.215"/>
            <path fill="#2B83FD" d="M157.754 220.854c.016.93-.744 1.698-1.7 1.714l-46.534.813c-.954.016-1.742-.725-1.759-1.655l-.22-12.628c-.016-.93.746-1.698 1.7-1.715l46.534-.812c.956-.017 1.742.725 1.758 1.654l.22 12.629"/>
            <path fill="#2B83FD" d="M121.635 227.17l-4.67-4.418 4.513-4.58 4.669 4.42-4.512 4.578"/>
            <path fill="#4E99FF" d="M157.736 219.856c.017.93-.743 1.696-1.7 1.713l-46.533.812c-.955.016-1.743-.723-1.76-1.652l-.22-12.631c-.016-.932.746-1.698 1.7-1.715l46.534-.812c.957-.017 1.743.723 1.759 1.654l.22 12.631"/>
            <path fill="#4E99FF" d="M121.618 226.17l-4.671-4.42 4.514-4.579 4.668 4.42-4.511 4.579"/>
            <path fill="#FFF" d="M119.947 218.198l-.008-.43c-.025-1.42-1.262-2.548-2.765-2.522l-2.721.047c-1.503.027-2.7 1.198-2.676 2.618l.008.43 8.162-.143M116.772 211.752c.015.828-.66 1.512-1.504 1.527-.844.014-1.542-.646-1.556-1.473-.015-.828.66-1.512 1.504-1.527.844-.015 1.542.646 1.556 1.473"/>
            <path fill="#FF5931" d="M121.978 217.662c.024 1.38-1.098 2.52-2.508 2.544-1.408.025-2.569-1.076-2.593-2.455-.024-1.381 1.098-2.52 2.506-2.544 1.41-.024 2.571 1.074 2.595 2.455M153.01 204.967a1.414 1.414 0 0 0-1.858.032l-.304.288-.313-.277a1.414 1.414 0 0 0-1.858.033 1.117 1.117 0 0 0 .029 1.685l.316.275 1.885 1.653 2.133-2.004c.503-.475.49-1.23-.03-1.685"/>
            <path fill="#FFF" d="M149.887 211.329l-3.387.06c.159-.375.345-.84.387-1.076.044-.238-.014-.81-.014-.81a.785.785 0 0 0-.808-.762l-.398.007.02 1.2s-1.363 1.608-1.352 2.257l.067 3.789c.007.427.37.77.81.763l2.78-.049c.44-.008.916-.365 1.071-.795l1.343-3.814c.15-.432-.08-.778-.519-.77"/>
            <path fill="#FFF" d="M144.415 216.77l1.02-.017-.07-4-1.02.018zM141.354 216.824l2.04-.036-.086-4.999-2.04.036zM127.423 212.672l6.284-.11-.008-.474-6.284.11.008.474zm.02 1.183l6.284-.11-.008-.474-6.283.11.008.474zm.022 1.185l6.283-.11-.008-.473-6.284.11.009.473zm6.922-5.095l-7.735.135a.717.717 0 0 0-.711.723l.103 5.92a.718.718 0 0 0 .736.698l.484-.008.029 1.657 1.662-1.687 5.56-.097a.718.718 0 0 0 .711-.724l-.103-5.919a.717.717 0 0 0-.736-.698z"/>
            <path fill="#92B400" d="M159.814 257.123l16.998-.297-.297-16.998-16.997.297z"/>
            <path fill="#9FC400" d="M160.78 256.088l12.997-.227-.227-12.998-12.998.227z"/>
            <path fill="#92B400" d="M164.665 246.45a1.5 1.5 0 1 1-2.998.053 1.5 1.5 0 0 1 2.998-.054M169.103 248.976l2.31 3.462 2.312 3.458-8.998.158 2.189-3.538 2.187-3.54"/>
            <path fill="#92B400" d="M164.129 251.976l3.57 3.938-6.999.122 1.714-2.029 1.715-2.031"/>
            <g>
                <path fill="#E04037" d="M100.008 247.034l11.698-.204-.204-11.698-11.699.204z"/>
                <path fill="#FF5931" d="M101.443 244.421l9.099-.158-.16-9.1-9.098.16z"/>
                <path fill="#E04037" d="M104.225 237.437a1.301 1.301 0 1 1-2.602.046 1.301 1.301 0 0 1 2.602-.046M108.143 240.74l3.317 3.843-6.499.114 3.182-3.957"/>
                <path fill="#E04037" d="M104.203 241.56l.999 1.283.997 1.283-3.9.068 1.904-2.634"/>
            </g>
            <path fill="#F3AA06" d="M170.84 234.149l19.998-.35-.35-19.996-19.996.349z"/>
            <path fill="#FECE40" d="M172.806 233.114l15.997-.28-.279-15.997-15.998.28z"/>
            <path fill="#F3AA06" d="M178.665 220.45a1.5 1.5 0 1 1-2.999.052 1.5 1.5 0 0 1 2.999-.053M181.596 223.976l3.069 3.948 3.069 3.946-11.998.21 2.931-4.05 2.93-4.054"/>
            <path fill="#F3AA06" d="M177.621 227.976l2.043 2.463 2.044 2.466-7.999.14 1.956-2.536 1.956-2.533"/>
        </g>
        <path fill="#FF8080" d="M69.009 267.27l-8.252-.158.158-3.061 8.252.158-.158 3.061"/>
        <path fill="#7F65C1" d="M81.158 301.655l.38 8.24-3.073.381-.381-8.24 3.074-.381"/>
        <path fill="#FF5E4D" d="M83.151 234.743l-8.252-.158.158-3.061 8.252.158-.158 3.061"/>
        <path fill="#FFCB48" d="M48.698 229.598a3 3 0 1 1-4.242-4.242 3 3 0 0 1 4.242 4.242"/>
        <path fill="#2B7052" d="M117.995 232.426a3 3 0 1 1-4.243-4.242 3 3 0 0 1 4.243 4.242"/>
        <path fill="#FFCB48" d="M115.167 293.238a3 3 0 1 1-4.243-4.244 3 3 0 0 1 4.243 4.244"/>
        <path fill="#FF9A2E" d="M111.158 255.528l-1.76 5.1 3.159 4.107-5.271-.032-3.576 4.35-1.573-5.072-4.478-1.51-.88-1.12 5.203-1.952-.032-5.27 4.204 3.125 4.124-2.846.88 1.12"/>
        <path fill="#F9E7C7" d="M110.57 254.7l-1.62 4.898 3.143 4.187-5.19-.115-2.955 4.207-1.587-4.968-4.968-1.587 4.208-2.955-.115-5.189 4.186 3.142 4.898-1.62"/>
        <g>
            <path fill="#D5EAF5" d="M357 347.001c0 2.762-18.58 4.999-41.5 4.999s-41.5-2.237-41.5-4.999c0-2.762 18.58-5.001 41.5-5.001s41.5 2.24 41.5 5.001"/>
            <path fill="#D5EAF5" d="M383 342c0 2.76-14.775 5-33 5s-33-2.24-33-5c0-2.762 14.775-5 33-5s33 2.238 33 5"/>
            <path fill="#3B2B5B" d="M312.413 241.835c-.993-1.065-5.582-11.83 1.328-15.236 0 0 .112-2.178 3.061-2.568 2.95-.39 4.15 3.043 4.198 3.531.048.488-7.661 14.6-8.125 14.437l-.462-.164"/>
            <path fill="#FF97A6" d="M287.217 236.605c.5-.786 1.697-.81 1.9-.05.023.09-.003.492-.03.832-.023.267-.045.494-.045.494s.716-.881.916-.697c.2.181-.374.698-.521.987-.148.289-.895 2.376-1.63 1.692 0 0-1.312-2.123-.59-3.258"/>
            <path fill="#FF97A6" d="M288.94 235.411s-.27-.18-.39.243c0 0-.092-.67-.406-.654-.34.02-.44.637-.518.738 0 0 .04-.4-.159-.244-.199.156-.524.895-.459 1.255.067.36 1.917.227 1.917.227s.158-1.26.016-1.565"/>
            <path fill="#30193B" d="M281.017 345.87c-.232-.773 2.011-2.063 3.385-2.566-.353.306-.775.735-.154.84.91.152 2.803-.393 3.297-1.144.272.478.405 1.17.455 1.653.062.62-6.83 1.726-6.983 1.217"/>
            <path fill="#FF97A6" d="M284.573 343.97c-.646-.121-.89-.61.044-.93.834-.286 1.49-.753 1.635-.855.38-.27.45-1.05.45-1.05l.766-.135s.45 1.487.532 1.648c-.513.868-2.482 1.499-3.427 1.322"/>
            <path fill="#30193B" d="M360.649 339c-1.014.039-1.578-2.448-1.649-3.878.214.414.542.927.88.368.495-.816.563-2.748-.096-3.414.627-.13 1.446-.071 2 .01.713.107-.516 6.89-1.135 6.914"/>
            <path fill="#FF97A6" d="M359.678 335.552c-.284.582-.75.697-.74-.263a6.938 6.938 0 0 0-.22-1.75c-.109-.423-.718-.676-.718-.676l.112-.755s1.332-.07 1.484-.108c.554.692.496 2.703.082 3.552"/>
            <path fill="#30193B" d="M323 259.667c3.463-1.408 5.813-3.667 5.813-3.667l3.293 2.927c19.101 13.192 7.55 45.51 7.55 45.51s18.592 25.576 18.887 25.823c.268.224 1.236 2.87-.859 2.735-.176-.012-.607-.214-.76-.303-2.56-1.509-23.773-17.314-27.637-20.968-5.038-4.76-3.188-33.227-3.188-33.227L323 259.667"/>
            <path fill="#FF97A6" d="M315 234.272s.114 4.737.404 5.21c.288.475 1.196.988 1.528-.27.33-1.26-.651-5.212-.651-5.212l-1.281.272"/>
            <path fill="#C95D77" d="M315.127 237.763c.57.306 1.307.385 1.873-.189a27.394 27.394 0 0 0-.442-2.574l-1.558.325c.026.703.068 1.624.127 2.438"/>
            <path fill="#FF97A6" d="M312.186 232.783c.041-.46.889-1.805 1.635-2.907.618-.916 1.892-1.151 2.817-.527 1.433.968 2.96 2.121 3.224 2.67.412.86-.187 1.842-.616 2.582-.427.739-1.467 1.911-2.298 2.251-.758.312-2.264.095-2.935-.32-2.013-1.247-2.272-2.103-1.827-3.749M328.596 207.94a.724.724 0 0 0 .836-.185c.527-.637 1.606-2.039 1.567-2.787-.054-.989-.678-2.974-1.127-2.968-.447.005-.662 2.092-.724 2.555-.055.422-2.141 2.712-.552 3.385"/>
            <path fill="#3B2B5B" d="M300.51 299.107c4.808-12.383 14.362-27.71 14.362-27.71L312.696 256l9.35.71c2.492-.208 7.516 5.03 7.516 5.03 13.996 12.949-3.443 24.407-3.443 24.407l-12.335 16.57s-25.136 38.477-24.964 38.711c.164.224-2.793.567-2.82.572-.091-.67 11.904-36.182 14.51-42.893"/>
            <path fill="#FF5E4D" d="M329.15 238.048L325.881 235s-2.874 2.134-3.975 2.582c-1.63.664-6.917 1.383-6.917 1.383l-4.535.294c-2.222.192-2.766 1.9-2.3 4.05.895 4.143 1.696 10.988 4.962 15.763 9.014 2.613 17.174-1.11 17.866-1.214.229-.6-1.832-19.81-1.832-19.81"/>
            <path fill="#FF5E4D" d="M310.015 239c1.58-.037 1.336 6.16-1.297 9.83-2.38 3.318-5.331 8.225-10.092 9.126-3.52.665-.228-6.393-.228-6.393l4.695-6.877s4.196-5.625 6.922-5.686"/>
            <path fill="#FF5E4D" d="M296.826 257.993c-3.495-.188-13.09-12.693-10.336-17.396 1.025-1.75 2.32-1.593 2.32-1.593l11.115 14.223s.84 4.978-3.099 4.766"/>
            <path fill="#F23B36" d="M324.101 239.797c.462 1.508 2.11 3.93 4.854.316 2.479-3.269 10.63-12.101 10.012-16.89-.459-3.54-6.292 1.732-6.292 1.732l-5.215 6.546s-4.155 5.692-3.359 8.296"/>
            <path fill="#F23B36" d="M337.61 224.433c1.78-3.106-2.824-18.214-8.07-18.43-1.95-.08-2.54 1.119-2.54 1.119l5.128 17.356s3.477 3.454 5.483-.045M328.22 238.143L325.071 235s-2.768 2.2-3.828 2.662c-.616.269-1.774.546-2.955.784-1.465.296 2.993 13.181 5.492 18.75.649 1.446 1.708 2.804 1.708 2.804s.67-.17.803-.208c2.074-.568 3.43-1.179 3.691-1.221.22-.618-1.764-20.428-1.764-20.428"/>
            <path fill="#3B2B5B" d="M317.335 225.92c-.396.748-2.869 2.094-2.23 3.915.638 1.822 1.827 2.76 2.32 3.346 0 0-2.466 2.498-1.396 6.085 1.07 3.587 4.177 3.48 4.177 3.48s-3.635 7.388 1.157 11.378c4.79 3.988 11.846 1.08 13.156-3.688 1.31-4.769-.083-9.197-3.887-10.487 0 0 .382-5.27-4.926-6.355 0 0 2.525-8.317-5.473-7.971 0 0-1.903-1.583-2.898.297"/>
            <path fill="#7F65C1" d="M327 230.954c-.069-.746-.22-1.486-.512-2.163a4.127 4.127 0 0 0-1.333-1.691c-.577-.432-1.266-.69-1.975-.83-.712-.148-1.45-.136-2.18-.113a.267.267 0 0 1-.162-.047l-.017-.013-.258-.176-.006-.006a.245.245 0 0 1-.054-.048c-.426-.493-.948-.901-1.544-1.109-.599-.216-1.24-.223-1.882-.08-.637.132-1.26.363-1.728.772-.478.377-.82.974-.893 1.532l-.003.024a.3.3 0 0 1-.167.23c-.988.475-1.873 1.157-2.512 2.04-.64.883-1.047 1.93-1.246 3.025-.202 1.096-.193 2.23-.095 3.353.098 1.127.328 2.243.613 3.346a17.411 17.411 0 0 1-.882-3.312 11.915 11.915 0 0 1-.07-3.457c.154-1.152.537-2.305 1.232-3.273.684-.976 1.645-1.738 2.702-2.261l-.17.254a2.979 2.979 0 0 1 1.092-1.98c.584-.493 1.308-.74 2.013-.875.7-.149 1.49-.139 2.19.131.705.259 1.295.743 1.758 1.296l-.06-.053.304.217-.177-.059c.766.004 1.538.029 2.293.218.75.182 1.485.495 2.09.992a4.164 4.164 0 0 1 1.3 1.885c.256.72.348 1.482.338 2.23"/>
        </g>
        <g>
            <path fill="#D5EAF5" d="M87.317 381.067c0 3.344-22.714 6.054-50.733 6.054s-50.733-2.71-50.733-6.054c0-3.344 22.714-6.055 50.733-6.055s50.733 2.711 50.733 6.055"/>
            <path fill="#FF97A6" d="M44.635 255.846s.811-1.406 1.122-2.014c.403-.786.445-1.911.146-1.92-.299-.009-.403.75-.403.75s.163-.774.029-.823c-.133-.049-.189.172-.189.172s.044-.286-.191-.196c-.235.09-.864 1.004-.989 1.288-.24.542-.534 2.075-.541 2.7-.003.232.528.314 1.016.043"/>
            <path fill="#F9879A" d="M-2.441 377.447c.032.562.365.806.676.028.278-.694.631-.959.718-1.076.123-.167 1.263-.831 1.443-.867.168-.035.002-1.356-.161-1.224-.776.631-1.361.345-1.43.294-.671.377-1.294 2.021-1.246 2.845"/>
            <path fill="#5654AF" d="M28.453 317.425c-5.393 4.662-3.641 31.245-3.641 31.245S-.325 374.509-.283 374.671l.036 3.103c.066.256 25.466-16.024 33.441-22.114 2.842-2.17 8.458-19.095 11.572-29.825 2.347-8.087 3.13-13.681 3.13-13.681s-15.886 2.196-19.443 5.271"/>
            <path fill="#30193B" d="M76.679 378.586c-.202-1.36-2.415-.648-3.698-.425.401.073.907.206.461.551-.651.506-2.359.923-3.05.583-.02.469.156 1.037.313 1.413.202.486 6.04-1.676 5.974-2.122"/>
            <path fill="#FF97A6" d="M73.442 378.712c.446-.345.459-.758-.359-.574a6.105 6.105 0 0 1-1.535.135c-.381-.014-.708-.481-.708-.481l-.659.362s.216 1.006.211 1.141c.691.34 2.399-.077 3.05-.583"/>
            <path fill="#6C65C1" d="M25.066 328.01c.876 7.074 21.132 24.694 21.132 24.694s23.605 26.041 24.106 25.893l1.751-.808c.154-.045-10.301-19.585-15.662-29.59-3.938-7.349-11.272-25.461-10.967-24.651 0 0-1.96-10.166-2.678-11.136-1.844-.246-3.893-2.579-9.998.79-7.192 3.966-8.084 11.577-7.684 14.808"/>
            <path fill="#F9CB9D" d="M25.16 294.754c.607-5.674 17.044-9.929 19.808-5.64 4.013 6.228 2.898 23.58 2.898 23.58s-1.558.989-4.684 1.355c-4.203.493-12.252.334-12.252.334s.161-4.11-1.235-8.759c-1.496-4.985-4.563-10.613-4.535-10.87"/>
            <path fill="#FFE5B0" d="M32.234 296.236c-1.721.092-6.119.315-9.714-3.04-3.252-3.035-9.414-8.928-9.728-14.202-.231-3.901 7.659 2.048 7.659 2.048l6.574 8.613s7.115 6.478 5.209 6.581"/>
            <path fill="#F9CB9D" d="M41.994 258.935c.46 2.392 2.276 17.084 2.276 17.084s-2.057 10.541-2.277 13.243c-.102 1.246-.053 2.606-.053 2.606.031 1.335.114-1.915 2.689-.05 1.163-2.66 3.328-7.584 3.075-7.313.62-2.418 1.199-5.244 1.429-8.015.254-3.057 1.312-4.037 1.655-8.497.507-6.602-3.473-13.586-6.771-12.479-.321.107-.826.337-1.047.595-.493.575-1.294 1.178-.976 2.826"/>
            <path fill="#FFE5B0" d="M15.057 283.62c-3.395-1.935-7.298-19.98-2.287-23.089 1.864-1.157 3.355-.436 3.355-.436l4.848 21.716s-2.09 3.989-5.916 1.809M25.16 294.754c.298-2.786 4.413-5.23 8.853-6.489.235-.066.706-.189.706-.189s4.076 6.518 5.744 10.583c2.217 5.406 2.719 15.39 2.719 15.39s-.502.056-.77.08c-4.342.395-11.482.254-11.482.254s.161-4.11-1.235-8.759c-1.496-4.985-4.563-10.613-4.535-10.87"/>
            <path fill="#3B2B5B" d="M36.786 277.588s1.277 4.005 1.006 5.425c-.271 1.421-3.862-3.574-3.862-3.574l2.856-1.851"/>
            <path fill="#FF97A6" d="M32.976 284.205s.544 4.643.98 5.062c.437.418 1.731.774 2.086-.519.354-1.293-1.322-5.021-1.322-5.021l-1.744.478"/>
            <path fill="#C95D77" d="M32.566 282.78s.767 4.509.934 5.054c.129.421 2.438.098 2.427-.487-.022-1.291-1.616-5.046-1.616-5.046l-1.745.479"/>
            <path fill="#FF97A6" d="M37.884 283.849c.079-.423-.33-1.831-.709-2.998a1.812 1.812 0 0 0-2.326-1.147c-1.488.525-3.104 1.193-3.468 1.621-.571.672-.291 1.696-.099 2.462.192.764.809 2.064 1.449 2.568.585.461 1.951.627 2.638.415 2.063-.634 2.5-1.34 2.515-2.921"/>
            <path fill="#3B2B5B" d="M32.454 280.775s5.022.257 6.338-4.021c.942-3.064-2.097-4.985-2.097-4.985s.298 2.787-2.216 3.584c-1.288.408-5.398-.68-6.234 2.809-.62 2.584 4.209 2.613 4.209 2.613"/>
            <path fill="#3B2B5B" d="M28.714 278.501c-.107-.009-1.918 1.112-1.287 2.594.631 1.483 4.641 4.468 4.641 4.468s-.737-4.02.386-4.788c1.122-.768-3.74-2.274-3.74-2.274"/>
            <path fill="#3B2B5B" d="M28.328 278.863s-.882-2.223.634-3.43c0 0-.491 1.741.109 2.166.599.426-.743 1.264-.743 1.264"/>
            <path fill="#3B2B5B" d="M28.683 278.371s-1.468-.398-1.991-.004c0 0 1.304.144 1.693.93.39.786.298-.926.298-.926"/>
            <path fill="#30193B" d="M37.066 289.335l-.369 1.879-.746.241-1.647-1.316s1.297-1.85 2.762-.804"/>
            <path fill="#30193B" d="M35.821 290.584s1.55 11.033 1.932 14.887c.382 3.855.473 4.566.473 4.566l3.631 1.665 2.062-2.898s-1.31-5.206-3.196-10.027c-1.551-3.96-3.653-7.622-4.34-8.248-1.522-1.389-.562.055-.562.055"/>
            <path fill="#F9CB9D" d="M33.471 287.725s.054.581.97 1.188c.273.181.752.298 1.172.19l-.698 2.798s-2.584-.814-1.444-4.176"/>
            <path fill="#FFE5B0" d="M35.927 287.347s.175.419.087 1.141c-.034.271-.034.342-.401.615l1.929 1.643s1.383-1.572-1.615-3.399"/>
            <path fill="#FF97A6" d="M14.466 260.076s-.812-1.407-1.123-2.014c-.402-.786-.445-1.91-.145-1.92.299-.009.404.75.404.75s-.164-.774-.031-.823c.134-.049.19.172.19.172s-.044-.287.191-.197c.235.09.864 1.004.989 1.288.239.542.534 2.076.541 2.701.003.231-.528.313-1.016.043"/>
            <path fill="#FF97A6" d="M14.206 259.434s-1.957-1.316-1.874-1.509c.084-.191 1.161.22 1.258.373.097.155.616 1.136.616 1.136M44.896 255.204s1.958-1.557 1.875-1.75c-.083-.191-1.181.222-1.278.375-.097.155-.597 1.375-.597 1.375"/>
        </g>
    </g>
</svg>
