<?xml version="1.0" encoding="utf-8"?>
<!-- Generator: Adobe Illustrator 22.0.1, SVG Export Plug-In . SVG Version: 6.00 Build 0)  -->
<svg version="1.1" id="Layer_1" xmlns="http://www.w3.org/2000/svg" xmlns:xlink="http://www.w3.org/1999/xlink" x="0px" y="0px"
	 viewBox="0 0 16 16" style="enable-background:new 0 0 16 16;" xml:space="preserve">
<style type="text/css">
	.st0{fill:#F3601F;}
</style>
<title>tooltip</title>
<desc>Created with Sketch.</desc>
<g>
	<g transform="translate(7.000000, 7.000000)">
		<path class="st0" d="M1,9c-4.4,0-8-3.6-8-8s3.6-8,8-8s8,3.6,8,8S5.4,9,1,9z M0.1,3h1.7c0-0.3,0-0.5,0.1-0.7s0.2-0.4,0.4-0.6L3,1
			c0.3-0.3,0.5-0.5,0.6-0.8s0.2-0.6,0.2-0.9c0-0.7-0.2-1.3-0.7-1.7C2.6-2.8,1.9-3,1-3C0.2-3-0.5-2.8-1-2.3c-0.5,0.4-0.7,1-0.7,1.8h2
			c0-0.3,0.1-0.5,0.2-0.7C0.6-1.4,0.8-1.5,1-1.5c0.5,0,0.8,0.3,0.8,0.9c0,0.2-0.1,0.5-0.2,0.7S1.2,0.5,0.9,0.8
			C0.6,1,0.4,1.3,0.3,1.6C0.1,1.9,0.1,2.4,0.1,3z M-0.2,4.7c0,0.3,0.1,0.5,0.3,0.7s0.5,0.3,0.8,0.3s0.6-0.1,0.8-0.3S2,5,2,4.7
			S1.9,4.2,1.7,4S1.2,3.7,0.9,3.7S0.3,3.8,0.1,4S-0.2,4.5-0.2,4.7z"/>
	</g>
</g>
</svg>
