<svg xmlns="http://www.w3.org/2000/svg" width="29" height="23" viewBox="0 0 29 23">
    <path fill="#F65618" fill-rule="nonzero" stroke="#F65618" stroke-width=".5" d="M25.333 4.471H19.5V1.694A.683.683 0 0 0 18.834 1h-8.668a.683.683 0 0 0-.666.694v2.777H3.667C2.197 4.475 1.004 5.716 1 7.248v11.975c.004 1.532 1.196 2.773 2.667 2.777h21.666c1.471-.004 2.663-1.245 2.667-2.777V7.248a2.822 2.822 0 0 0-.777-1.968 2.6 2.6 0 0 0-1.89-.809zm-14.5-2.082h7.333V4.47h-7.334V2.39zm-4 18.222H3.666c-.735-.003-1.33-.622-1.333-1.388V7.248c.002-.766.598-1.386 1.333-1.389h3.167v3.437l-2.5.312c-.167.035-.334.104-.434.278a.683.683 0 0 0-.133.52l.366 3.263a.693.693 0 0 0 .667.625h.067l1.933-.243v6.56h.034zm2.8-10.274l.233 1.91L5.4 12.8l-.233-1.909 4.467-.555zm11.2 10.274H8.167v-6.768l2.5-.313c.166-.034.333-.104.433-.277a.683.683 0 0 0 .133-.52l-.367-3.263a.66.66 0 0 0-.241-.464.608.608 0 0 0-.492-.126l-1.966.242V5.824h12.666v8.019l-1.9-.278c-.366-.07-.7.209-.766.59l-.467 3.263c-.067.382.2.729.567.798l2.533.382v2.013h.033zm3-4.894l-.267 1.874-4.434-.693.267-1.875 4.434.694zm2.833 3.506c-.003.766-.598 1.385-1.333 1.388h-3.167v-1.804l1.9.277h.1a.624.624 0 0 0 .4-.139.778.778 0 0 0 .267-.45l.466-3.264a.722.722 0 0 0-.567-.798l-2.566-.382V5.859h3.167c.735.003 1.33.623 1.333 1.389v11.975z"/>
</svg>
