<svg xmlns="http://www.w3.org/2000/svg" width="55" height="55" viewBox="0 0 55 55">
    <g fill="none" fill-rule="evenodd">
        <circle cx="27.5" cy="27.5" r="27.5" fill="#161E6D"/>
        <g fill="#FFF" fill-rule="nonzero">
            <path d="M13.75 18.857v15.91h4.138v4.057h24.148V22.913h-4.138v-4.056H13.75zm23.03 18.095H23.144a4.504 4.504 0 0 0-1.236-2.184h15.99v-7.821a4.435 4.435 0 0 0 2.285 1.291v5.354a4.484 4.484 0 0 0-3.403 3.36zm-21.177-7.416v-5.353a4.485 4.485 0 0 0 3.427-3.454h13.587a4.485 4.485 0 0 0 3.428 3.463v5.344a4.484 4.484 0 0 0-3.403 3.36H19.006a4.484 4.484 0 0 0-3.403-3.36zm20.442 1.95v1.41h-1.464c.281-.65.809-1.158 1.464-1.41zm0-9.25a2.623 2.623 0 0 1-1.5-1.507h1.5v1.507zM17.1 20.729a2.623 2.623 0 0 1-1.497 1.513V20.73H17.1zm-1.497 10.757c.655.252 1.183.76 1.463 1.41h-1.463v-1.41zm4.138 4.056c.655.252 1.183.76 1.463 1.41h-1.463v-1.41zm18.978 1.41a2.624 2.624 0 0 1 1.464-1.417v1.417h-1.464zm1.464-10.66a2.623 2.623 0 0 1-1.498-1.507h1.498v1.507z"/>
            <path d="M25.816 22.185a4.576 4.576 0 1 0-.006 9.151 4.576 4.576 0 0 0 .006-9.151zm0 7.244a2.672 2.672 0 1 1 1.89-.78 2.672 2.672 0 0 1-1.89.783v-.003z"/>
        </g>
    </g>
</svg>
