<svg xmlns="http://www.w3.org/2000/svg" width="35" height="33" viewBox="0 0 35 33">
    <g fill="#9B9B9B" fill-opacity=".4" fill-rule="nonzero">
        <path d="M28.198 8.399a10.008 10.008 0 0 0-3.13-5.74A10.015 10.015 0 0 0 18.295.03c-1.94 0-3.829.556-5.447 1.604a9.998 9.998 0 0 0-3.259 3.429 5.504 5.504 0 0 0-6.552 5.397c0 .392.043.77.114 1.14A7.65 7.65 0 0 0 0 17.768c0 1.975.734 3.893 2.075 5.411 1.376 1.555 3.194 2.474 5.133 2.581h6.189a.958.958 0 0 0 .962-.962.958.958 0 0 0-.962-.963H7.294c-2.916-.178-5.369-2.951-5.369-6.074 0-2.018 1.084-3.9 2.83-4.92a.97.97 0 0 0 .421-1.169 3.578 3.578 0 0 1 4.577-4.584.967.967 0 0 0 1.205-.492 8.146 8.146 0 0 1 7.344-4.656 8.076 8.076 0 0 1 8.078 7.33c.042.434.37.784.798.855 3.173.542 5.568 3.472 5.568 6.816 0 3.543-2.787 6.623-6.224 6.887h-5.254a.958.958 0 0 0-.963.963c0 .534.428.962.963.962h5.361c2.175-.157 4.207-1.155 5.718-2.823a8.879 8.879 0 0 0 2.324-5.989c-.007-4-2.737-7.557-6.473-8.541z"/>
        <path d="M23.114 18.68a.96.96 0 0 0 0-1.362l-5.097-5.098a.944.944 0 0 0-1.355 0l-5.098 5.098a.96.96 0 0 0 0 1.362.969.969 0 0 0 .678.285.94.94 0 0 0 .677-.285l3.458-3.458v15.892c0 .534.428.962.962.962a.958.958 0 0 0 .963-.962V15.222l3.458 3.458a.951.951 0 0 0 1.354 0z"/>
    </g>
</svg>
